<?xml version="1.0" encoding="utf-8"?>
<svg width="32" height="32" viewBox="0 0 32 32" fill="#fffff" xmlns="http://www.w3.org/2000/svg">
  <g>
    <g>
      <rect width="32" height="32" fill="#FFFFFF" fill-rule="evenodd" fill-opacity="0" />
      <path d="M22.6667 0C22.6667 0 4 0 4 0C1.79086 0 0 1.79086 0 4C0 4 0 17.3333 0 17.3333C0 19.5425 1.79086 21.3333 4 21.3333C4 21.3333 22.6667 21.3333 22.6667 21.3333C24.8758 21.3333 26.6667 19.5425 26.6667 17.3333C26.6667 17.3333 26.6667 4 26.6667 4C26.6667 1.79086 24.8758 0 22.6667 0C22.6667 0 22.6667 0 22.6667 0ZM21.88 3L13.44 9.33333L5 3L21.88 3ZM23 18.3333C23 18.3333 4.33333 18.3333 4.33333 18.3333C3.59695 18.3333 3 17.7364 3 17C3 17 3 4 3 4C3 4 12.8667 11.4 12.8667 11.4C13.0975 11.5731 13.3782 11.6667 13.6667 11.6667C13.9552 11.6667 14.2359 11.5731 14.4667 11.4C14.4667 11.4 24.3333 4 24.3333 4C24.3333 4 24.3333 17 24.3333 17C24.3333 17.7364 23.7364 18.3333 23 18.3333C23 18.3333 23 18.3333 23 18.3333Z" fill="#FFFFFF" transform="translate(2.667 5.333)" />
    </g>
  </g>
</svg>