<?xml version="1.0" encoding="utf-8"?>
<svg width="32" height="32" viewBox="0 0 32 32" fill="#ffffff" xmlns="http://www.w3.org/2000/svg">
  <g>
    <g>
      <rect width="32" height="32" fill="#FFFFFF" fill-rule="evenodd" fill-opacity="0" />
      <rect width="32" height="32" fill="#FFFFFF" fill-rule="evenodd" fill-opacity="0" />
      <path d="M10.6667 26.6732C10.6667 26.6732 5.33333 26.6732 5.33333 26.6732C4.59695 26.6732 4 26.0763 4 25.3399C4 25.3399 4 17.0732 4 17.0732C4 17.0732 1.33333 17.0732 1.33333 17.0732C0.596954 17.0732 0 16.4763 0 15.7399C0 15.7399 0 10.9399 0 10.9399C0 10.2035 0.596954 9.60657 1.33333 9.60657C1.33333 9.60657 4 9.60657 4 9.60657C4 9.60657 4 7.3399 4 7.3399C4.19457 3.1106 7.76978 -0.166673 12 0.00656438C12 0.00656438 16 0.00656438 16 0.00656438C16.7364 0.00656438 17.3333 0.603518 17.3333 1.3399C17.3333 1.3399 17.3333 6.1399 17.3333 6.1399C17.3333 6.87628 16.7364 7.47323 16 7.47323C16 7.47323 12 7.47323 12 7.47323L12 9.60656C12 9.60656 16 9.60656 16 9.60656C16.4173 9.6034 16.8121 9.79584 17.0667 10.1266C17.3185 10.4623 17.3975 10.897 17.28 11.2999C17.28 11.2999 15.9467 16.0999 15.9467 16.0999C15.7807 16.6936 15.2293 17.096 14.6133 17.0732C14.6133 17.0732 12 17.0732 12 17.0732C12 17.0732 12 25.3399 12 25.3399C12 26.0763 11.403 26.6732 10.6667 26.6732C10.6667 26.6732 10.6667 26.6732 10.6667 26.6732ZM7 24.3428L9.66667 24.3428C9.66667 24.3428 9.66667 16.0762 9.66667 16.0762C9.66667 15.3398 10.2636 14.7428 11 14.7428C11 14.7428 13.9867 14.7428 13.9867 14.7428L14.5733 12.6095C14.5733 12.6095 11 12.6095 11 12.6095C10.2636 12.6095 9.66667 12.0125 9.66667 11.2762C9.66667 11.2762 9.66667 7.67615 9.66667 7.67615C9.73778 6.2557 10.9111 5.14104 12.3333 5.14282C12.3333 5.14282 15 5.14282 15 5.14282L15 3.00949C15 3.00949 12.3333 3.00949 12.3333 3.00949C9.57742 2.84158 7.19942 4.92233 7.00001 7.67615C7.00001 7.67615 7.00001 11.2762 7.00001 11.2762C7.00001 12.0125 6.40305 12.6095 5.66667 12.6095C5.66667 12.6095 3 12.6095 3 12.6095L3 14.7428C3 14.7428 5.66667 14.7428 5.66667 14.7428C6.40305 14.7428 7 15.3398 7 16.0762C7 16.0762 7 24.3428 7 24.3428Z" fill="#FFFFFF" transform="translate(6.667 2.66)" />
    </g>
  </g>
</svg>