<?xml version="1.0" encoding="utf-8"?>
<svg width="32" height="32" viewBox="0 0 32 32" fill="#ffffff" xmlns="http://www.w3.org/2000/svg">
  <g>
    <rect width="32" height="32" fill="#FFFFFF" fill-rule="evenodd" fill-opacity="0" />
    <path d="M18.9895 26.6439C18.2531 26.6439 17.6562 26.0469 17.6562 25.3105C17.6562 25.3105 17.6562 21.8439 17.6562 21.8439C17.7399 21.0375 17.4783 20.2333 16.9362 19.6305C16.5977 19.2635 16.4927 18.7382 16.664 18.2692C16.8353 17.8003 17.2542 17.4664 17.7495 17.4039C21.0028 17.0172 24.0028 15.9772 24.0028 10.3372C24.0038 9.28364 23.6929 8.25371 23.1093 7.37693C22.5708 6.56977 22.3743 5.58209 22.5626 4.63026C22.6828 4.00936 22.6828 3.37117 22.5626 2.75026C21.5642 3.08783 20.6242 3.57809 19.776 4.2036C19.4513 4.43419 19.0404 4.50755 18.656 4.4036C16.2498 3.72367 13.7022 3.72367 11.296 4.40359C10.9115 4.50755 10.5007 4.43419 10.176 4.2036C9.32256 3.57085 8.37255 3.08008 7.36265 2.75026C7.23585 3.37051 7.23585 4.01001 7.36265 4.63026C7.53743 5.59406 7.33193 6.5881 6.78931 7.40359C6.20833 8.28656 5.89784 9.31997 5.89598 10.3769C5.89598 15.5636 8.40265 16.9503 12.1626 17.4303C12.6645 17.4925 13.0879 17.8333 13.256 18.3103C13.4139 18.7724 13.3065 19.284 12.976 19.6436C12.4517 20.204 12.1858 20.9583 12.2426 21.7236C12.2426 21.7236 12.2426 25.3105 12.2426 25.3105C12.2426 26.0469 11.6457 26.6439 10.9093 26.6439C10.1729 26.6439 9.57598 26.0469 9.57598 25.3105C9.57598 25.3105 9.57598 24.5505 9.57598 24.5505C6.91494 24.8566 4.27731 23.8105 2.54931 21.7639C2.11198 21.2791 1.58729 20.8811 1.00265 20.5905C0.540475 20.4715 0.17691 20.115 0.0489409 19.6552C-0.0790286 19.1955 0.0480466 18.7024 0.382285 18.3617C0.716523 18.0211 1.20713 17.8846 1.66924 18.0038C2.69491 18.3775 3.61137 19.0007 4.33591 19.8172C5.66924 21.1505 7.00257 22.3238 9.53591 21.8438C9.49137 21.128 9.59579 20.4106 9.84257 19.7372C7.09591 19.0438 3.17591 17.0705 3.17591 10.4038C3.17242 8.82457 3.63637 7.2797 4.50931 5.96375C4.67144 5.72082 4.73354 5.42468 4.68264 5.13708C4.41321 3.69785 4.56602 2.2114 5.12264 0.857084C5.27576 0.491489 5.5836 0.21297 5.96264 0.0970843C6.41597 -0.0362489 8.04264 -0.302916 11.1226 1.69708C13.6159 1.09709 16.216 1.09709 18.7093 1.69708C21.7893 -0.302916 23.416 -0.0495827 23.856 0.0970838C24.235 0.21297 24.5429 0.491489 24.696 0.857084C25.2537 2.2158 25.4065 3.70682 25.136 5.15042C25.0809 5.41317 25.1337 5.68704 25.2826 5.91042C26.1581 7.23016 26.6221 8.78006 26.616 10.3638C26.616 17.1238 22.7226 19.0838 19.9493 19.6971C20.1936 20.4125 20.2933 21.1694 20.2426 21.9238C20.2426 21.9238 20.2426 25.3105 20.2426 25.3105C20.2439 26.0168 19.6943 26.6015 18.9893 26.6439C18.9893 26.6439 18.9895 26.6439 18.9895 26.6439Z" fill="#FFFFFF" transform="translate(3 3)" />
  </g>
</svg>