<?xml version="1.0" encoding="utf-8"?>
<svg width="32" height="32" viewBox="0 0 32 32" fill="none" xmlns="http://www.w3.org/2000/svg">
  <g>
    <g>
      <rect width="32" height="32" fill="#FFFFFF" fill-rule="evenodd" fill-opacity="0" />
      <path d="M14.6667 18.6133C14.6667 18.6133 12.44 18.6133 12.44 18.6133C10.9672 18.6133 9.77333 17.4194 9.77333 15.9467C9.77333 15.9467 9.77333 8.78667 9.77333 8.78667C9.79789 8.20796 9.4143 7.69095 8.85334 7.54667C8.53293 7.49788 8.2071 7.59028 7.96 7.8C7.70559 8.01591 7.55925 8.33298 7.56 8.66666C7.56 8.66666 7.56 15.9467 7.56 15.9467C7.56 17.4194 6.3661 18.6133 4.89334 18.6133C4.89334 18.6133 2.66667 18.6133 2.66667 18.6133C1.19391 18.6133 0 17.4194 0 15.9467C0 15.9467 0 8.66666 0 8.66666C0 3.8802 3.8802 0 8.66667 0C13.4531 0 17.3333 3.8802 17.3333 8.66667C17.3333 8.66667 17.3333 15.9467 17.3333 15.9467C17.3333 17.4194 16.1394 18.6133 14.6667 18.6133C14.6667 18.6133 14.6667 18.6133 14.6667 18.6133ZM9 5.2C9.20868 5.18682 9.41799 5.18682 9.62667 5.2C11.4744 5.55542 12.8007 7.1853 12.7733 9.06667C12.7733 9.06667 12.7733 16.28 12.7733 16.28L15 16.28C15 16.28 15 9 15 9C15 5.68629 12.3137 3 9 3C5.68629 3 3 5.68629 3 9C3 9 3 16.28 3 16.28L5.22667 16.28C5.22667 16.28 5.22667 9 5.22667 9C5.22667 6.91159 6.91183 5.2146 9.00009 5.2C9.00009 5.2 9 5.2 9 5.2Z" fill="#FFFFFF" transform="translate(12 10.72)" />
      <path d="M5.33333 18.6667C5.33333 18.6667 2.66667 18.6667 2.66667 18.6667C1.19391 18.6667 0 17.4728 0 16C0 16 0 2.66667 0 2.66667C0 1.19391 1.19391 0 2.66667 0C2.66667 0 5.33333 0 5.33333 0C6.80609 0 8 1.19391 8 2.66667C8 2.66667 8 16 8 16C8 17.4728 6.80609 18.6667 5.33333 18.6667C5.33333 18.6667 5.33333 18.6667 5.33333 18.6667ZM3 3L3 16.3333L5.66667 16.3333L5.66667 3L3 3Z" fill="#FFFFFF" transform="translate(2.667 10.667)" />
      <path d="M4 8C1.79086 8 0 6.20914 0 4C2.38419e-07 1.79086 1.79086 0 4 0C6.20914 0 8 1.79086 8 4C8 6.20914 6.20914 8 4 8C4 8 4 8 4 8ZM4.33333 3C3.59695 3 3 3.59695 3 4.33333C3 5.06971 3.59695 5.66667 4.33333 5.66667C5.06971 5.66667 5.66667 5.06971 5.66667 4.33333C5.66667 3.59695 5.06971 3 4.33333 3C4.33333 3 4.33333 3 4.33333 3Z" fill="#FFFFFF" transform="translate(2.667 1.333)" />
    </g>
  </g>
</svg>